<svg id="Layer_2" data-name="Layer 2" xmlns="http://www.w3.org/2000/svg" viewBox="0 0 400 300" width="406" height="306" class="illustration styles_illustrationTablet__1DWOa"><title>PP_</title><path d="M187.59,285.18l-165.77-98c-5.28-3-9.8-7.83-4.66-11L183.53,80.32c2.5-1.55,6.29-2.56,8.82-1.09l174,101c5.28,3.06,6.22,11.63.94,14.69L209.44,285A22,22,0,0,1,187.59,285.18Z" fill="#9ac0ff"></path><path d="M148.48,194.71c-.07.58-.82,7.24,1.07,9.16s5,2.95,7.47,4.5c1.29.81,6.37,6,3,7-2.32.7-9.66-.58-14.46-3.16s-7.95-2.81-8.32-4.42,1-15.07,1-15.07" fill="#363942"></path><path d="M146.32,204.56c.38-2.92.72-6.18.83-7.88A24.3,24.3,0,0,0,146.32,204.56Z" fill="#363942"></path><path d="M125.42,206s1.87,5.88,3.19,7.29,6.73,7.27,5.33,9.94-11.13-.13-13.36-4.1-3.49-4.08-4.31-5.73S115,202.28,115,202.28" fill="#363942"></path><path d="M152.71,127s-1,69.87-3.41,71.34-10.68,3.37-14.59.27l5.12-30L128,210.44s-11.5,1.13-14.79-3.19c-.64-.84.49-4.19.65-5.08.71-4,1.51-8,2.32-12,2.16-10.66,4.45-21.3,6.75-31.93q1.22-5.62,2.45-11.25c1.24-5.66,2.73-11.78,6.16-16.71,2.36-3.4,5.71-9.18,10.07-10.53" fill="#ff7f5c"></path><path d="M131.69,130.22c7.15,1.56,14.52,1.16,21-2.17,1.57-10.62,2.92-21.24,2.29-32a1,1,0,0,1,0-.25A9.75,9.75,0,0,0,152,91.58c-3.54-2.56-9.6-1.74-13.24-.15a13.19,13.19,0,0,0-2.47,1.45C131.65,104.87,132.53,117.64,131.69,130.22Z" fill="#68e1fd"></path><path d="M148.1,86.32l-6.44-1.66-.92,6.82s4.64,5.06,9.53,4.66l-1.06-5.78A17.78,17.78,0,0,1,148.1,86.32Z" fill="#fcbb5b"></path><path d="M148.21,87a29.59,29.59,0,0,0-6.55-2.31l-.38,3.74S146,92.08,149,89.82A17.67,17.67,0,0,1,148.21,87Z" fill="#db9231"></path><path d="M153.21,79.13s4.48-2.27,3.73-4.62-4.08-3.15-4.08-3.15-.37-3-2.85-3.44-6.91,1.23-6.91,1.23-3.73-.54-5.17,1.39-1.15,5.55-1.15,5.55,2.64,9.21,4,9.51,5-2.83,5-2.83" fill="#204a51"></path><path d="M153.42,76.29s.36,12-5,12.52-7.26-6.58-7.26-6.58-3.08-3-1-3.58,2.31.57,2.31.57-1.75-4.42.34-4.31S150.67,78.6,153.42,76.29Z" fill="#fbc76f"></path><path d="M144.5,139.9a594.94,594.94,0,0,1-16.26,64.33c-.21.66.84,1.1,1.05.43A597.58,597.58,0,0,0,145.64,140C145.77,139.35,144.64,139.21,144.5,139.9Z" fill="#363942"></path><path d="M140.84,89.56s2.43,2.42,4.09,2.66l2.51,1.49,2,2.24.16-2.95a26.08,26.08,0,0,1-.39-2.66c.1,0,2.13,3.54,2.13,3.54l1.95,3.51-3.1-.46L148.76,99s-7.55-3.71-10-7.6Z" fill="#fff"></path><path d="M56.45,158.32a24,24,0,0,0-5,16.49c.67,9.62,6.08,12.42,6.08,12.42l6.45.36s7.67-2.5,6.67-15C69.71,160.81,65.88,158,65.88,158" fill="#91c642"></path><ellipse cx="61.2" cy="158.32" rx="4.75" ry="1.68" fill="#91c642"></ellipse><ellipse cx="61.2" cy="186.2" rx="4.75" ry="1.68" fill="#91c642"></ellipse><path d="M59.25,158.83l-5.75-33c-.13-.72-1.22-.41-1.09.3l5.75,33C58.28,159.85,59.37,159.54,59.25,158.83Z" fill="#007f68"></path><path d="M60.29,158.94a1.37,1.37,0,0,1,.53,0,1.19,1.19,0,0,1,.59.36q.69-13.82.25-27.65c0-.73-1.16-.73-1.13,0Q61,145.3,60.29,158.94Z" fill="#007f68"></path><path d="M73.21,126.94a303.2,303.2,0,0,0-11.1,31.68.57.57,0,0,0,1.09.3,303.2,303.2,0,0,1,11.1-31.68C74.58,126.57,73.49,126.27,73.21,126.94Z" fill="#007f68"></path><path d="M54.72,139.45s-.62-.08-3.33-2.93.71-5-.86-8.21.64-7.42,1.14-10.64A14.89,14.89,0,0,0,54.06,124c2,2.93,3.19,5.57,3,9.28a32.86,32.86,0,0,1-1.2,6.93" fill="#007f68"></path><path d="M60.55,144.54s-.58-.22-2.52-3.65,1.91-4.67,1.16-8.17,2.43-7,3.69-10a14.89,14.89,0,0,0,.78,6.67c1.27,3.34,1.74,6.18.63,9.72a32.86,32.86,0,0,1-2.85,6.43" fill="#007f68"></path><path d="M68.64,138.6s-.53-.34-1.72-4.09,2.82-4.18,2.81-7.76,3.82-6.4,5.67-9.07a14.89,14.89,0,0,0-.6,6.69c.56,3.53.44,6.4-1.38,9.65a32.86,32.86,0,0,1-4.11,5.71" fill="#007f68"></path><path d="M235.13,87.66a1.39,1.39,0,0,1,.15-.15.88.88,0,0,1,.94-.84,24.71,24.71,0,0,1,4,.16c1,.21,1.32.77,1.84,1.62s1.1,1.71,1.69,2.53c.2.25.42.49.63.73,1.39,1.16,2.79,2.31,4.22,3.42a.83.83,0,0,1,.27.53l.15.15a1,1,0,0,1-.84,1.7h-.07a1,1,0,0,1-.84,1,1.56,1.56,0,0,1-1.48.54.84.84,0,0,1-.75-.1,43.32,43.32,0,0,1-5.57-4.32,1.42,1.42,0,0,1-1.15.69,1.17,1.17,0,0,1-1.39-1,1.69,1.69,0,0,1-1.11.15,1.29,1.29,0,0,1-1-1.79,1.22,1.22,0,0,1-.72,0C232.06,91.88,234.4,88.63,235.13,87.66Z" fill="#f04900"></path><path d="M281.72,225.83l1.58-1,0-17.79-7.81-.28s-.15,7.59-2,9.32-6.41.49-6.86.64-3.52-.74-4.9.68,4.68,5.52,7.9,6.27a20.8,20.8,0,0,0,6.7.25s.7-4.55,1.82-4.1,1.2,5.26,1.2,5.26Z" fill="#006ba4"></path><path d="M287.6,131.64a126.26,126.26,0,0,1,1.94,18.49c.13,7-2.34,62.94-2.34,62.94s-4.64,5.44-15.94,2.16c-1.64-.47-2.16-54.59-2.16-54.59L273,135.8" fill="#fc9c54"></path><path d="M282.4,103.39c-.62,0-21.41-.54-35.46-13.13,0,0-6.73,6.6-4,11.65,0,0,19.92,19.19,35.11,15.26" fill="#006ba4"></path><path d="M265.93,97.45a.31.31,0,0,0-.52,0,13.72,13.72,0,0,0-2,10.29c.08.38.66.22.59-.16a13.09,13.09,0,0,1,1.67-9.37,21.64,21.64,0,0,1,2.56,10.4.3.3,0,0,0,.61,0A22.29,22.29,0,0,0,265.93,97.45Z" fill="#42a200"></path><path d="M260.32,239.55l1.58-1,0-17.79-7.81-.28s-.15,7.59-2,9.32-6.41.49-6.86.64-3.52-.74-4.9.68,4.68,5.52,7.9,6.27a20.8,20.8,0,0,0,6.7.25s.7-4.55,1.82-4.1,1.2,5.26,1.2,5.26Z" fill="#006ba4"></path><path d="M263.13,134.23s-7.2,26.58-10.13,50.37c-.7,5.71-6.61,39.77-6.61,39.77s9.74,3.56,18.4.77c0,0,10.3-43.46,10.74-44.31s7.39-29,8.19-49.2" fill="#fc9c54"></path><path d="M285.14,100.41,281,98.86c-1.05.07-10.4,3.13-14.65,9.32a40.52,40.52,0,0,0-1.36,5.93c-.54,2.67-1,5.35-1.34,8a59.2,59.2,0,0,0-.5,8.86c0,1.27.07,1.91.2,3.17a5.61,5.61,0,0,0,1.58,1.12c12.28,5.28,22-1.13,22.49-2.12s2.11-15.47,3-24.09A8.34,8.34,0,0,0,285.14,100.41Z" fill="#006ba4"></path><path d="M275.1,84.64s-3.86,14,1.27,15.93S288.1,97,288.77,94.11,282.8,80.43,275.1,84.64Z" fill="#f04900"></path><path d="M300.44,80.46A6.52,6.52,0,0,0,292.68,77c-2.83.92-4.54,3.35-5.37,6.06-2.55-2.23-6.35-3.36-11.17-1.88,0,0-4.73,2-3.87,5s4.45,3,7.46,3.59.57,3.23.72,6.2,1.49,3.46,2.74,3.72,6.93-1,7.73-7.67a8.89,8.89,0,0,0,.06-1.23,15.92,15.92,0,0,0,2.35.07,8.73,8.73,0,0,0,5-1.38A7.58,7.58,0,0,0,300.44,80.46Z" fill="#fc9c54"></path><path d="M270.17,100a2.67,2.67,0,0,0,.47-1.9,1,1,0,0,0-1.82-.42l-.44.6c-.07-.77-.15-1.54-.26-2.31a1,1,0,0,0-2,.07c0,.24-.06.49-.08.73a4,4,0,0,0-.17.79c-1.09.14-2.39.54-2.58,1.79,0,0,0,.06,0,.08-.84,0-1.66.33-1.69,1.33a3.68,3.68,0,0,0,0,.57c-.85.25-1.47.68-1.35,1.79a16.34,16.34,0,0,0,1,3.77,1,1,0,0,0,.76.57c.12.54.26,1.07.41,1.6a1.5,1.5,0,0,0,2.52.28,1.18,1.18,0,0,0,.3-.06,1,1,0,0,0,.83.14,1,1,0,0,0,1.51-.45,1,1,0,0,0,.33-.84c0-.23,0-.46,0-.68v0Q269.11,103.73,270.17,100Z" fill="#f04900"></path><path d="M268.45,105.17c-.32.08-4.82-4.05-8.23-2.63,0,0-13,21.92-.87,27.72,6,2.88,10.67-6,10.67-6l-3.45-6.82Z" fill="#006ba4"></path><path d="M267.38,106.06a43.8,43.8,0,0,0-5.78,15.16c-.11.63.85.9,1,.27a43,43,0,0,1,5.68-14.92C268.58,106,267.72,105.52,267.38,106.06Z" fill="#653200"></path><path d="M269.8,125.11c-1,1.95-2.28,4-4.28,5a6.56,6.56,0,0,1-7.23-1.12c-4.26-3.67-3.62-10-2.77-14.93.11-.63-.85-.9-1-.27-1,5.54-1.51,12.74,3.72,16.45a7.52,7.52,0,0,0,7.09,1c2.5-1,4.09-3.38,5.29-5.69C271,125,270.09,124.54,269.8,125.11Z" fill="#653200"></path><path d="M280.69,151.19c-.64,12.71-4.39,24.89-7.57,37.13s-5.89,24.43-8.21,36.78l1.08-.3q3.53-18.71,8.34-37.15c3.15-12,6.73-24,7.36-36.46C281.73,150.55,280.73,150.55,280.69,151.19Z" fill="#653200"></path><polygon points="243.48 94.86 188.95 14.45 184.35 16.35 240.44 96.79 243.48 94.86" fill="#363942"></polygon><path d="M189.26,14.81s-17.56-2.67-21.75,6.48-12.33,8.38-24.07,7.62l18,31s17.91-2.11,21.72-10.47,22-11.18,22-11.18Z" fill="#68e1fd"></path><polygon points="178.61 92.1 231.05 18.6 235.65 20.5 181.03 92.64 178.61 92.1" fill="#363942"></polygon><path d="M228.93,18.6s17.56-2.67,21.75,6.48S263,33.46,274.75,32.7l-18,31s-17.91-2.11-21.72-10.47-21.13-10.32-21.13-10.32Z" fill="#68e1fd"></path><path d="M184.74,84.63a1.39,1.39,0,0,0-.15-.15.88.88,0,0,0-.94-.84,24.71,24.71,0,0,0-4,.16c-1,.21-1.32.77-1.84,1.62s-1.1,1.71-1.69,2.53c-.2.25-.42.49-.63.73-1.39,1.16-2.79,2.31-4.22,3.42a.83.83,0,0,0-.27.53l-.15.15a1,1,0,0,0,.84,1.7h.07a1,1,0,0,0,.84,1,1.56,1.56,0,0,0,1.48.54.84.84,0,0,0,.75-.1,43.32,43.32,0,0,0,5.57-4.32,1.42,1.42,0,0,0,1.15.69,1.17,1.17,0,0,0,1.39-1,1.69,1.69,0,0,0,1.11.15,1.29,1.29,0,0,0,1-1.79,1.22,1.22,0,0,0,.72,0C187.81,88.84,185.47,85.59,184.74,84.63Z" fill="#fbc76f"></path><path d="M171.59,91.27c-5.59,3.88-14.88,11.3-15.8,11.61-2,.67-4.71-2.35-6.08-3.43-3.2-2.51-8.79-9.62-13.49-6.55A5.44,5.44,0,0,0,134,96.48c-1.58,8.27,5.79,13.92,12.72,16.42,3.07,1.11,7,2.31,10.26,1.51,3.11-.77,6-2.66,8.54-4.49.91-.65,9.07-7.48,13.88-12A82.89,82.89,0,0,1,171.59,91.27Z" fill="#68e1fd"></path><path d="M171.59,91.27c-5.59,3.88-14.88,11.3-15.8,11.61-2,.67-4.71-2.35-6.08-3.43-3.2-2.51-8.79-9.62-13.49-6.55A5.44,5.44,0,0,0,134,96.48c-1.58,8.27,5.79,13.92,12.72,16.42,3.07,1.11,7,2.31,10.26,1.51,3.11-.77,6-2.66,8.54-4.49.91-.65,9.07-7.48,13.88-12A82.89,82.89,0,0,1,171.59,91.27Z" fill="#fff" opacity="0.22"></path><path d="M240.73,88c-.19-.09-.36-.2-.55-.31a.92.92,0,0,0-.44-1.05l-3-1.76c-1-.61-1.91.73-1.21,1.57a12.81,12.81,0,0,0,4.15,3.28C240.87,90.27,241.89,88.55,240.73,88Z" fill="#f04900"></path></svg>