<svg id="Layer_2" data-name="Layer 2" xmlns="http://www.w3.org/2000/svg" xmlns:xlink="http://www.w3.org/1999/xlink" viewBox="0 0 400 300" width="406" height="306" class="illustration styles_illustrationTablet__1DWOa"><defs><linearGradient id="linear-gradient" x1="148.26" y1="234.05" x2="187.39" y2="188.35" gradientUnits="userSpaceOnUse"><stop offset="0" stop-color="#ef75b5"></stop><stop offset="1" stop-color="#d4145a"></stop></linearGradient></defs><title>PP</title><path d="M188.48,290.69,8.75,184.47C3,181.26-1.88,176,3.7,172.52l180.37-104c2.71-1.68,6.82-2.78,9.57-1.18L382.3,176.89c5.72,3.32,6.75,12.6,1,15.93L212.17,290.52A23.9,23.9,0,0,1,188.48,290.69Z" fill="#ef75b5"></path><polygon points="246.86 191.12 143.92 248.56 97.37 221.27 180.1 171.32 210.1 197.91 246.86 191.12" fill="url(#linear-gradient)"></polygon><polygon points="139.99 220.15 85.2 188.84 220 110.03 338.58 178.84 203.98 257.9 139.99 220.15" fill="none" stroke="#f2f2f2" stroke-miterlimit="10"></polygon><ellipse cx="261.83" cy="225.05" rx="7.57" ry="3.78" fill="#bababc"></ellipse><polyline points="254.27 225.05 254.27 220 269.4 220 269.4 225.05" fill="#bababc"></polyline><ellipse cx="261.83" cy="220" rx="7.57" ry="3.78" fill="#fff"></ellipse><line x1="152.08" y1="97.11" x2="152.08" y2="150" fill="none" stroke="#f2f2f2" stroke-miterlimit="10"></line><path d="M197.26,63.51c-1-1.3-15.34-9.79-15.34-9.79l0,.07c-2.93-3.25-8.38-2.11-15.46,4,0,0-.24-6.76-8.35-7.85s-10.41,2.6-10.41,2.6-2.73-12.82-19-8C114,49,116,63.79,116,63.79s-9.17-2.3-16.5,7.79a38,38,0,0,0-6.77,21.89s-15.42,5.58-17.38,19.6a34.37,34.37,0,0,0-.3,3.66l0,.36a41.94,41.94,0,0,0,.81,9,5.86,5.86,0,0,0,2.87,4.08l16.35,9.33a23.34,23.34,0,0,0-1.67-12l80.94-47s6.19-5.45,8.79-12.66l6.23-1.61S198.28,64.81,197.26,63.51Z" fill="#053855" opacity="0.1"></path><path d="M197.26,63.51c-1-1.3-15.34-9.79-15.34-9.79l0,.07c-2.93-3.25-8.38-2.11-15.46,4,0,0-.24-6.76-8.35-7.85s-10.41,2.6-10.41,2.6-2.73-12.82-19-8C114,49,116,63.79,116,63.79s-9.17-2.3-16.5,7.79a38,38,0,0,0-6.77,21.89s-15.42,5.58-17.38,19.6a34.37,34.37,0,0,0-.3,3.66l0,.36a41.94,41.94,0,0,0,.81,9,5.86,5.86,0,0,0,2.87,4.08l16.35,9.33a23.34,23.34,0,0,0-1.67-12l80.94-47s6.19-5.45,8.79-12.66l6.23-1.61S198.28,64.81,197.26,63.51Z" fill="#053855" opacity="0.1"></path><path d="M197.26,63.51c-1-1.3-15.34-9.79-15.34-9.79l0,.07c-2.93-3.25-8.38-2.11-15.46,4,0,0-.24-6.76-8.35-7.85s-10.41,2.6-10.41,2.6-2.73-12.82-19-8C114,49,116,63.79,116,63.79s-9.17-2.3-16.5,7.79a38,38,0,0,0-6.77,21.89s-15.42,5.58-17.38,19.6a34.37,34.37,0,0,0-.3,3.66l0,.36a41.94,41.94,0,0,0,.81,9,5.86,5.86,0,0,0,2.87,4.08l16.35,9.33a23.34,23.34,0,0,0-1.67-12l80.94-47s6.19-5.45,8.79-12.66l6.23-1.61S198.28,64.81,197.26,63.51Z" fill="#68e1fd"></path><path d="M197.26,63.51c-1-1.3-15.34-9.79-15.34-9.79l0,.07c-2.93-3.25-8.38-2.11-15.46,4,0,0-.24-6.76-8.35-7.85s-10.41,2.6-10.41,2.6-2.73-12.82-19-8C114,49,116,63.79,116,63.79s-9.17-2.3-16.5,7.79a38,38,0,0,0-6.77,21.89s-15.42,5.58-17.38,19.6a34.37,34.37,0,0,0-.3,3.66l0,.36a41.94,41.94,0,0,0,.81,9,5.86,5.86,0,0,0,2.87,4.08l16.35,9.33a23.34,23.34,0,0,0-1.67-12l80.94-47s6.19-5.45,8.79-12.66l6.23-1.61S198.28,64.81,197.26,63.51Z" fill="#053855" opacity="0.23"></path><path d="M104,140.59l86.07-50S200.62,81.37,200,71s-7.51-12.06-17.82-3.08c0,0-.21-8.69-8.35-7.85s-11.21,6.17-11.21,6.17S164.21,50.77,148,55.59a22.59,22.59,0,0,0-16.22,18.27s-9.17-2.3-16.5,7.79a38,38,0,0,0-6.77,21.89s-15.42,5.58-17.38,19.6S95.86,143.47,104,140.59Z" fill="#68e1fd"></path><path d="M227.06,65.08s2.36,18.57,8.76,17.82S247.3,72.34,247.3,72.34s4.49-20.7,5-20.85c2-.66-1.36-2.16-1.36-2.16S244.49,51,243,58.83s-4.34,10.58-4.34,10.58" fill="#a5dd73"></path><path d="M247.91,160.57a3.92,3.92,0,0,1-.8,3.22c-1.22,1.31-5.86,5.42-6.3,6.31s-1.06,3.32,0,4.16,3.12.94,5.64,0a44.67,44.67,0,0,0,9.73-6.08c1.12-1.22,0-13.75,0-13.75s-6.51-1.59-8.7,0Z" fill="#f96156"></path><path d="M240.31,171.81a2.59,2.59,0,0,0,.51,2.42c1.06.84,3.12.94,5.64,0a44.67,44.67,0,0,0,9.73-6.08,6,6,0,0,0,.48-2.83C252.45,169.35,243.53,176.08,240.31,171.81Z" fill="#391a3a"></path><path d="M250.58,165.34A3.8,3.8,0,0,0,249,164a5.22,5.22,0,0,0-2.31-.24c-.64,0-.64,1,0,1a3,3,0,0,1,3,1.08C250.1,166.35,251,165.85,250.58,165.34Z" fill="#391a3a"></path><path d="M249.16,167.07a4.47,4.47,0,0,0-4.27-1.5c-.63.13-.36,1.09.27,1a3.47,3.47,0,0,1,3.29,1.25C248.89,168.25,249.59,167.54,249.16,167.07Z" fill="#391a3a"></path><path d="M263.35,168.24a3.92,3.92,0,0,1-.8,3.22c-1.22,1.31-5.86,5.42-6.3,6.31s-1.06,3.32,0,4.16,3.12.94,5.64,0a44.67,44.67,0,0,0,9.73-6.08c1.12-1.22,0-13.75,0-13.75s-6.51-1.59-8.7,0Z" fill="#f96156"></path><path d="M255.75,179.47a2.59,2.59,0,0,0,.51,2.42c1.06.84,3.12.94,5.64,0a44.67,44.67,0,0,0,9.73-6.08,6,6,0,0,0,.48-2.83C267.89,177,259,183.74,255.75,179.47Z" fill="#391a3a"></path><path d="M266,173a3.8,3.8,0,0,0-1.56-1.34,5.22,5.22,0,0,0-2.31-.24c-.64,0-.64,1,0,1a3,3,0,0,1,3,1.08C265.54,174,266.41,173.52,266,173Z" fill="#391a3a"></path><path d="M264.6,174.74a4.47,4.47,0,0,0-4.27-1.5c-.63.13-.36,1.09.27,1a3.47,3.47,0,0,1,3.29,1.25C264.33,175.92,265,175.21,264.6,174.74Z" fill="#391a3a"></path><path d="M249.22,82.9a67.85,67.85,0,0,0-5.65,25.2c-.22,13.78,1.41,50.81,1.41,50.81s3.82,3.67,12.21,2.38V109.91s2.93,1.09,2.93,3.27,2.68,54.74,2.68,54.74,1.5,2.79,12.48-1.47c0,0,1.5-68.81-6.56-82.32" fill="#5b434d"></path><path d="M248.07,86.54c5.25,1.82,15.61,1.7,21.11,1.38,2.24-2.37,2.84-4.73,4.08-7.29,4.69-9.7,2.72-26.21,2.72-26.21s-7-5.41-11.64-6.71-14.89,1-16.57,3.81-2.3,15.45,0,33.42C247.84,85.26,248,86.23,248.07,86.54Z" fill="#a5dd73"></path><path d="M256.92,49.41c-1.64.35-1.95-4.19-1.25-4.61s8.38-.47,9.56.06c2.59,1.15,0,5,0,5" fill="#a5dd73"></path><path d="M266.78,30.42c-1.48-.26-1.43-2.73-4.18-3.85s-6,.49-7.2,1.36-2.08-.9-3.4.46-.48,3.44-1.25,4.18l-.11.08a3.83,3.83,0,0,0-.11,3.72,11.23,11.23,0,0,0,2.11,2.15L265,44.95c1.49-1.05,4.34-11,4.18-12.19A2.6,2.6,0,0,0,266.78,30.42Z" fill="#200904"></path><path d="M253.25,34.19c-.56.6,1.29,12.5,4.9,12.92s7.88-4.36,8.26-5.78.16-9-1.31-9.76S256.64,30.54,253.25,34.19Z" fill="#f67770"></path><path d="M254.94,30.76s-.71,2.77,3.61,3.29,4.62,1.49,5.13,3c1,2.85,4,6.16,5-2.39.05-.41-3.06-6.27-6.42-6.73S254.94,30.76,254.94,30.76Z" fill="#200904"></path><path d="M264.06,38.57s1.36-2.34,2.41-1.23.29,3.72-1.13,4.54" fill="#f67770"></path><path d="M276,54.42s6.35,13.67,6.48,21.14S270.55,94,270.55,94l-6.49-3s6.62-9.71,6.62-11.61-3.67-15-2.53-18.59S270.77,53.41,276,54.42Z" fill="#a5dd73"></path><path d="M272.18,71.26l-1.47-9.88c-.09-.63-1.06-.36-1,.27l1.17,7.9c.38,2.58,1.34,5.63.62,8.16-1.27,4.52-4.49,9-7.37,12.65-.4.5.31,1.21.71.71C268,87.22,271,82.73,272.51,78,273.19,75.82,272.51,73.43,272.18,71.26Z" fill="#75a542"></path><path d="M248.57,59.65a.5.5,0,0,0-1,0l.12,13.79a.5.5,0,0,0,1,0Z" fill="#75a542"></path><path d="M239.85,60.77l-9.38-14.93s-3.59-4.13-8-1.12-3.09,6.23-2.33,8.08,11.05,14.48,11.05,14.48l9.8,14,6.52,5.29,4.71-3.84-2-7.9Z" fill="#e6eaeb"></path><path d="M250.26,74.81s-5.09-10.24-10.41-14a12.16,12.16,0,0,0-8.62,6.51s3.28,8.7,9.8,14C241,81.26,243,76.06,250.26,74.81Z" fill="#17619e"></path><ellipse cx="250.03" cy="84.8" rx="3.05" ry="1.69" transform="translate(2.37 176.3) rotate(-39.01)" fill="#f4f89a"></ellipse><path d="M249.84,84.7h0a1.33,1.33,0,0,0-.33,1.85L265.92,110l.25,2.91,5.23,8.1,3.33-3.84-5.26-8.46-1.11-.15L251.72,85A1.35,1.35,0,0,0,249.84,84.7Z" fill="#e6eaeb"></path><path d="M225,59.88s-.49-2.31.54-3.34,1.81-.05,2.67,1,1.42,5,1.42,5,.92-1.34,1.54-1.14,0,5.91,0,5.91-3.3-1.14-4.38-2.59A16.41,16.41,0,0,1,225,59.88Z" fill="#f67770"></path><path d="M262.87,101.9a6.23,6.23,0,0,1,.46-2.21,3,3,0,0,1,1-.88,13.31,13.31,0,0,0,1.38-1l4.1-4.08-4.06-1.9c-.21.18-5,3.66-5.27,3.69s-3.5,2-3.34,2.5,2.36-1.18,2.36-1.18A24.54,24.54,0,0,0,256,98.71c-.4.47-.92,2.86-.56,3.19s.92,0,1.29-.18-.25,1,.32,1.19a4.11,4.11,0,0,0,1.33.23,1.2,1.2,0,0,0,1.38-.19,7.77,7.77,0,0,0,1.46-2.76s-.13,2.87.69,2.68C262.18,102.82,262.52,102.42,262.87,101.9Z" fill="#f67770"></path><path d="M259.26,97.68a6,6,0,0,0-1.69,1.12,5.31,5.31,0,0,0-1.12,2.77c-.06.28.39.34.44.06a4.44,4.44,0,0,1,1.18-2.69,7.82,7.82,0,0,1,1.63-1A1.83,1.83,0,0,1,259.26,97.68Z" fill="#5b434d"></path><path d="M260.47,98.18a8.8,8.8,0,0,0-1.38,1.23c-.68.87-.75,2.45-1,3.49-.07.28.38.34.44.06.31-1.29.41-2.75,1.39-3.7.36-.35.74-.69,1.13-1A5.3,5.3,0,0,1,260.47,98.18Z" fill="#5b434d"></path><polyline points="247.06 146.89 246.86 191.12 208.2 212.81 180.1 196.59 180.1 152.59" fill="#68e1fd"></polyline><polygon points="208.2 212.81 208.29 168.86 180.1 152.59 180.1 196.59 208.2 212.81" fill="#606060" opacity="0.21"></polygon><polygon points="241.4 156.4 241.4 165.96 214.61 181.24 214.61 171.87 241.4 156.4" fill="#606060" opacity="0.21"></polygon><polygon points="241.4 167.76 241.4 177.32 214.61 192.6 214.61 183.23 241.4 167.76" fill="#606060" opacity="0.21"></polygon><ellipse cx="219.97" cy="173.52" rx="1.71" ry="1.2" transform="translate(26.34 376.01) rotate(-84.55)" fill="#fff"></ellipse><ellipse cx="220.82" cy="184.85" rx="1.71" ry="1.2" transform="translate(15.84 387.11) rotate(-84.55)" fill="#fff"></ellipse><polygon points="241.4 178.79 241.4 188.35 214.61 203.63 214.61 194.26 241.4 178.79" fill="#606060" opacity="0.21"></polygon><ellipse cx="220.82" cy="195.88" rx="1.71" ry="1.2" transform="matrix(0.09, -1, 1, 0.09, 4.86, 397.1)" fill="#fff"></ellipse><polygon points="208.29 168.86 247.06 146.89 218.68 130.26 180.1 152.54 208.29 168.86" fill="#68e1fd"></polygon><polygon points="208.29 168.86 247.06 146.89 218.68 130.26 180.1 152.54 208.29 168.86" fill="#fff" opacity="0.44"></polygon><polyline points="247.06 101.1 246.86 145.33 208.2 167.02 180.1 150.8 180.1 106.8" fill="#68e1fd"></polyline><polygon points="208.2 167.02 208.29 123.07 180.1 106.8 180.1 150.8 208.2 167.02" fill="#606060" opacity="0.21"></polygon><polygon points="241.4 110.61 241.4 120.17 214.61 135.45 214.61 126.08 241.4 110.61" fill="#606060" opacity="0.21"></polygon><polygon points="241.4 121.97 241.4 131.53 214.61 146.81 214.61 137.44 241.4 121.97" fill="#606060" opacity="0.21"></polygon><ellipse cx="219.97" cy="127.72" rx="1.71" ry="1.2" transform="translate(71.93 334.57) rotate(-84.55)" fill="#fff"></ellipse><ellipse cx="220.82" cy="139.05" rx="1.71" ry="1.2" transform="translate(61.42 345.67) rotate(-84.55)" fill="#fff"></ellipse><polygon points="241.4 133 241.4 142.56 214.61 157.84 214.61 148.47 241.4 133" fill="#606060" opacity="0.21"></polygon><ellipse cx="220.82" cy="150.09" rx="1.71" ry="1.2" transform="matrix(0.09, -1, 1, 0.09, 50.44, 355.66)" fill="#fff"></ellipse><polygon points="208.29 123.07 247.06 101.1 218.68 84.47 180.1 106.75 208.29 123.07" fill="#68e1fd"></polygon><polygon points="208.29 123.07 247.06 101.1 218.68 84.47 180.1 106.75 208.29 123.07" fill="#fff" opacity="0.44"></polygon><polygon points="165.07 88.26 165.07 91.28 179.6 93.4 178.26 88.93 165.07 88.26" fill="#e6eaeb"></polygon><path d="M165.07,95.19v4.36s3.35,4,16.65,3.58l38.67,22.13s1.45,9.39,11.06,10.28,13.08-2.44,13.08-2.44v-2.47l-14.19-.89.89-1.79,4.47-2.68,8.83,1.23v-2.91l-11.4-2.79-7.94.78L182.53,98.18l-6.51.93" fill="#e6eaeb"></path><path d="M165.07,95.19,175,96.31l3.35-2.68-.78-3.58-12.52-1.79s8.49-5.14,16.09-1.34,5.48,7.94,9.28,10.17,35,20.34,36,20.9,7.15-1,12.18.78,5.92,4.81,5.92,4.81l-9.05-1.45-4,2.68,1.23,3.58,11.85,2.24s-3.58,3.13-12,2.35a12.54,12.54,0,0,1-11.18-9.39l-39.23-23.47S168.53,101.67,165.07,95.19Z" fill="#17619e"></path><path d="M161.82,215.28l-4.29-1.19.67-5.23S162.85,209.64,161.82,215.28Z" fill="#42210b"></path><path d="M156,200.06s-1.52,17.69-1.11,17.89,4.54.56,4.54.25.25-8,.25-8,2.07,3.42,2.17,5.13c0,0,4.94-2.81,5.85-5.07s-2.11-11.7-3.26-12.21" fill="#7f252b"></path><path d="M172.45,224.55l-4.86-5.16,3.17-4S173.72,221.89,172.45,224.55Z" fill="#42210b"></path><path d="M165.22,204.1l-2.27,21.22a25.19,25.19,0,0,0,4.34,1.15,13.77,13.77,0,0,0,2.63-1.24l.81-7.08s2.11,2.11,1.72,6.41c0-.29,3.36-1.4,3.79-1.6a25.12,25.12,0,0,0,3.89-2.12c1.29-.89,6.09-4.85,3.51-6.43-2.19-1.34-9.3-.7-9.3-.7l-.1-8.76" fill="#7f252b"></path><path d="M156.73,128.06a.51.51,0,0,0-.51-.62,16.32,16.32,0,0,1,2.39-5.21l20.55-2.42s4.13,14.69,5.72,40c1.23,19.62-8.39,48.79-8.39,48.79s-10,2.53-14.75-2.39l.19-4.22a50.25,50.25,0,0,1-7.41-.61C152,177,153.92,152.3,156.73,128.06Z" fill="#8cc63f"></path><path d="M161.16,205.06l2.58-18.18c.82-5.79,2.08-11.75,2.11-17.62s-2-11.14-3-16.74a65.52,65.52,0,0,1-.71-16.42c.1-1.28,1.94-1.29,1.83,0a63.7,63.7,0,0,0,1.12,18.33c1.15,5.38,2.75,10.49,2.52,16.09s-1.35,11.31-2.14,16.89l-2.58,18.18C162.75,206.86,161,206.32,161.16,205.06Z" fill="#42210b"></path><path d="M190.36,114.09c.9-.28,1.81-.54,2.72-.79l.08,0a57.69,57.69,0,0,1,7.91-2.31l5.14-3.55h0a.86.86,0,0,1,1.39.51c.3.86-1.51,2.71-2.11,3.22l-.22.19c-.12.1-.59.6-.73.58a12.28,12.28,0,0,1,5,1.43.93.93,0,0,1,0,1.6,2.65,2.65,0,0,1-1,.23l.18.07c1.14.48,1.68,1.39.67,2.41a.92.92,0,0,1-.31.21.77.77,0,0,1-.77.19l0,.17a1.2,1.2,0,0,1-.1,1.1,1.37,1.37,0,0,1-1.9.32l-.42-.16c-.46,1.15-1.75,1.16-2.87.75s-2.46-1-3.69-1.49l-3.69,1.43c-1,.39-2.76,1.54-3.85,1.16s-.64-2.18.47-1.78c-.23-.08.25-.13.39-.18l1-.39a8.16,8.16,0,0,1-2.91.58.93.93,0,0,1-.64-1.58,12.25,12.25,0,0,1,1.71-1.38,1,1,0,0,1,0-.63l-.13,0a1,1,0,0,1-.63-.12l-.2.06C189.69,116.23,189.23,114.45,190.36,114.09Z" fill="#fe6162"></path><path d="M165.17,89.92s11.44,0,15.39,7.2c3.32,6,2.69,16.12,2.69,16.12l13.17-1a5.42,5.42,0,0,1,2.84,6.32c-.51,2.59-13.58,3.78-20.79,5.57s-20.24,2.31-22.29-2-1.8-21.89.6-26.93S165.17,89.92,165.17,89.92Z" fill="#7f252b"></path><path d="M175.67,78.86s.6,8.7-2,10.7-7-1.31-7-1.31" fill="#fe6162"></path><path d="M173.5,74.51A8.44,8.44,0,0,1,176.14,78c2.19,5.47-3.7,12.27-9,13.33l-2.73-.86s-3.61-5.32-3.61-8.3a11,11,0,0,1,3.08-7.74C166.71,71.81,170.73,72.32,173.5,74.51Z" fill="#f9d026"></path><path d="M167.18,91.3s9.85,28.38,2.43,33.08-21.9.42-19.07-6.62,13.91-27.32,13.91-27.32" fill="#f9d026"></path></svg>